<?xml version="1.0" encoding="utf-8"?>
<!-- Generator: Adobe Illustrator 22.0.1, SVG Export Plug-In . SVG Version: 6.00 Build 0)  -->
<svg version="1.1" id="Layer_1" xmlns="http://www.w3.org/2000/svg" xmlns:xlink="http://www.w3.org/1999/xlink" x="0px" y="0px"
	 viewBox="0 0 200 35" style="enable-background:new 0 0 200 35;" xml:space="preserve">
<style type="text/css">
	.st0{fill:#FFFFFF;}
</style>
<g>
	<g>
		<g>
			<polygon class="st0" points="90.5,17.4 82.7,30.5 86,30.5 90.5,22.8 91.4,24.4 87.8,30.4 91,30.4 93,27 94,28.7 92.9,30.5 
				96.2,30.5 97.2,28.8 92.1,20.1 			"/>
			<polygon class="st0" points="95.5,14.2 98,18.5 99.6,15.7 97.1,11.4 98.1,9.9 100.5,14.1 102.1,11.4 98.1,4.6 91.4,15.9 
				99.9,30.5 103.1,30.5 94.6,15.8 			"/>
			<path class="st0" d="M110.2,30.5h3.4l-4.9-8.2l-1.6,0l0.2-2.2l-4.2-7L99,20.1l6.1,10.4h3.3l-2.6-4.4l0.9-1.6L110.2,30.5z
				 M104.7,24.4l-2.5-4.2l0.9-1.6l2.5,4.2L104.7,24.4z"/>
		</g>
	</g>
	<g>
		<path class="st0" d="M11.1,22.9V26H0.8V13.9h10.1v3.1h-6v1.4h5.2v2.9H4.9v1.6H11.1z"/>
		<path class="st0" d="M23.8,26l0-5.5l-2.7,4.4h-1.8l-2.7-4.2V26h-3.8V13.9h3.4l4,6.4l3.9-6.4h3.4l0,12.1H23.8z"/>
		<path class="st0" d="M32.5,25.4c-1.1-0.5-1.9-1.3-2.5-2.3c-0.6-1-0.9-2-0.9-3.3c0-1.2,0.3-2.3,0.9-3.3c0.6-1,1.4-1.7,2.5-2.3
			c1.1-0.5,2.3-0.8,3.6-0.8c1.3,0,2.5,0.3,3.6,0.8c1.1,0.5,1.9,1.3,2.5,2.3c0.6,1,0.9,2,0.9,3.3c0,1.2-0.3,2.3-0.9,3.3
			c-0.6,1-1.4,1.7-2.5,2.3c-1.1,0.5-2.3,0.8-3.6,0.8C34.7,26.3,33.5,26,32.5,25.4z M37.5,22.6c0.4-0.2,0.8-0.6,1-1.1
			c0.2-0.5,0.4-1,0.4-1.6c0-0.6-0.1-1.1-0.4-1.6c-0.2-0.5-0.6-0.8-1-1.1c-0.4-0.2-0.9-0.4-1.4-0.4c-0.5,0-1,0.1-1.4,0.4
			c-0.4,0.2-0.8,0.6-1,1.1c-0.2,0.5-0.4,1-0.4,1.6c0,0.6,0.1,1.1,0.4,1.6c0.2,0.5,0.6,0.8,1,1.1c0.4,0.2,0.9,0.4,1.4,0.4
			C36.6,22.9,37.1,22.8,37.5,22.6z"/>
		<path class="st0" d="M49.9,22.9h-1.1v3h-4.2V13.9h6c1.1,0,2.1,0.2,3,0.6c0.8,0.4,1.5,0.9,2,1.6c0.5,0.7,0.7,1.5,0.7,2.4
			c0,0.9-0.2,1.6-0.6,2.3c-0.4,0.6-1,1.2-1.7,1.5l2.6,3.7H52L49.9,22.9z M51.5,17.4c-0.3-0.2-0.7-0.4-1.3-0.4h-1.5v2.8h1.5
			c0.6,0,1-0.1,1.3-0.4c0.3-0.2,0.4-0.6,0.4-1C52,18,51.8,17.6,51.5,17.4z"/>
		<path class="st0" d="M64.9,21.6V26h-4.2v-4.4l-4.7-7.7h4.4l2.5,4.2l2.5-4.2h4L64.9,21.6z"/>
		<path class="st0" d="M77.7,23.9H73L72.2,26H68l5.4-12.1h4.1L82.9,26h-4.3L77.7,23.9z M76.6,20.9l-1.2-3l-1.2,3H76.6z"/>
		<path class="st0" d="M119.5,16.9V19h5.2v3.1h-5.2V26h-4.2V13.9h10.1v3.1H119.5z"/>
		<path class="st0" d="M126.7,13.9h4.2V26h-4.2V13.9z"/>
		<path class="st0" d="M145.1,13.9V26h-3.4l-4.7-5.5V26h-4.1V13.9h3.4l4.7,5.5v-5.5H145.1z"/>
		<path class="st0" d="M155.6,23.9h-4.7L150,26h-4.2l5.4-12.1h4.1l5.4,12.1h-4.3L155.6,23.9z M154.4,20.9l-1.2-3l-1.2,3H154.4z"/>
		<path class="st0" d="M173.6,13.9V26h-3.4l-4.7-5.5V26h-4.1V13.9h3.4l4.7,5.5v-5.5H173.6z"/>
		<path class="st0" d="M178.4,25.4c-1-0.5-1.9-1.3-2.5-2.2c-0.6-1-0.9-2.1-0.9-3.3c0-1.2,0.3-2.3,0.9-3.3c0.6-1,1.4-1.7,2.5-2.2
			c1-0.5,2.2-0.8,3.5-0.8c1.2,0,2.3,0.2,3.2,0.6c0.9,0.4,1.7,1,2.3,1.8l-2.6,2.3c-0.8-0.9-1.7-1.4-2.7-1.4c-0.9,0-1.6,0.3-2.1,0.8
			c-0.5,0.5-0.8,1.3-0.8,2.2c0,0.9,0.3,1.7,0.8,2.2c0.5,0.5,1.2,0.8,2.1,0.8c1,0,1.9-0.5,2.7-1.4l2.6,2.3c-0.6,0.8-1.4,1.4-2.3,1.8
			c-0.9,0.4-2,0.6-3.2,0.6C180.7,26.3,179.5,26,178.4,25.4z"/>
		<path class="st0" d="M199,22.9V26h-10.3V13.9h10.1v3.1h-6v1.4h5.2v2.9h-5.2v1.6H199z"/>
	</g>
</g>
</svg>
